PathFileType	4	(X/Y/Z)	CP4_315.1s.trc																												
DataRate	CameraRate	NumFrames	NumMarkers	Units	OrigDataRate	OrigDataStartFrame	OrigNumFrames																								
30	30	12	10	mm	30	7091	9454																								
Frame#	Time	pelvis_center			manubrium			l_acromion			l_humerus_epicondyle			l_radius_styloid			l_center_hand			r_acromion			r_humerus_epicondyle			r_radius_styloid			r_center_hand		
		X1	Y1	Z1	X2	Y2	Z2	X3	Y3	Z3	X4	Y4	Z4	X5	Y5	Z5	X6	Y6	Z6	X7	Y7	Z7	X8	Y8	Z8	X9	Y9	Z9	X10	Y10	Z10
																															
7091	236.3333333	-2370.783546	-144.0042799	-209.8738777	-2483.995731	133.2168665	-215.4345452	-2459.743394	22.60026813	-376.4491503	-2238.075946	-84.63934566	-429.5103377	-2023.944388	-3.752502707	-456.2816267	-1922.668306	49.53163698	-416.8349104	-2383.773704	86.64981748	-89.22621126	-2138.239097	13.69263826	-156.9487746	-1973.61739	26.00887645	-349.9124625	-1932.770863	49.82910709	-417.2368433
7092	236.3666667	-2371.004912	-143.9952351	-210.4780177	-2484.004771	132.9954363	-216.2868341	-2462.931953	25.03569312	-378.1938669	-2243.239264	-85.54691373	-432.3974078	-2035.035839	-8.087361174	-476.7549422	-1942.672135	40.56862684	-441.0674572	-2382.809274	86.14176339	-90.324702	-2137.934387	12.34741953	-161.8544796	-1976.713766	23.63206599	-359.1234688	-1940.333991	45.19122824	-431.7583964
7093	236.4	-2371.0442	-143.969161	-211.1553302	-2484.030826	132.956034	-217.2718008	-2466.261283	27.69310323	-379.7419104	-2248.599751	-86.23945503	-435.1245637	-2044.758786	-11.26102023	-495.6327688	-1958.740225	33.07061401	-463.5387507	-2381.652174	85.53359729	-91.6623802	-2137.585778	10.9281144	-167.1159292	-1979.443747	21.4458638	-368.2473841	-1946.585165	41.80167093	-442.3401108
7094	236.4333333	-2371.015372	-143.9661356	-211.8118686	-2484.033819	132.9850323	-218.1690946	-2469.624258	30.40435361	-381.106448	-2254.580654	-87.10996903	-437.8041047	-2052.682118	-13.72025067	-510.2289622	-1970.195765	27.62313714	-480.28482	-2380.309702	84.71423729	-93.02290035	-2137.120585	9.696962842	-172.377569	-1982.068615	19.39581564	-377.0769433	-1951.824877	39.1305181	-450.1481808
7095	236.4666667	-2370.997026	-144.0935818	-212.4770999	-2483.906393	133.0028542	-218.8528522	-2472.739334	33.00266062	-382.2772468	-2261.371844	-88.76171361	-440.3634889	-2059.385247	-16.11026779	-519.7753334	-1979.348515	23.24229393	-491.0793789	-2378.915427	83.74469807	-94.2394463	-2136.604096	8.778045246	-177.3749165	-1984.852976	17.39449743	-385.3102358	-1956.880488	36.38657378	-456.9207729
7096	236.5	-2370.99589	-144.410829	-213.2991974	-2483.589354	133.001595	-219.4959412	-2475.503222	35.41049683	-383.3090425	-2268.242669	-91.03773171	-442.642043	-2065.441641	-18.72788265	-525.1303191	-1987.879104	19.02897397	-497.4552565	-2377.692391	82.83566818	-95.41471945	-2136.188259	8.091905499	-181.9880816	-1987.73028	15.49053916	-392.7484417	-1962.606698	33.24723226	-463.8247146
7097	236.5333333	-2370.99906	-144.7831025	-214.2612081	-2483.217369	132.9966631	-220.3847974	-2478.024717	37.49755843	-384.3080567	-2274.024419	-92.99365429	-444.5702031	-2070.794866	-21.33280141	-527.8625226	-1995.77109	14.94454749	-501.0846574	-2376.766918	82.11259879	-96.72687878	-2135.983724	7.457780739	-186.1096902	-1990.389333	13.87167488	-399.176079	-1969.07732	29.9599056	-471.0800816
7098	236.5666667	-2371.000455	-145.0045914	-215.1559573	-2482.995366	133.0043087	-221.5227045	-2480.395685	39.2116006	-385.3016621	-2278.384502	-93.97135766	-446.1261559	-2075.31561	-23.62861237	-529.2641476	-2002.612371	11.2781596	-503.1800319	-2376.085152	81.4763036	-98.07910164	-2135.957121	6.799572632	-189.7220074	-1992.657451	12.64220806	-404.5571446	-1975.311787	26.98945469	-477.9402087
7099	236.6	-2371.000365	-145.0441771	-215.8642882	-2482.953333	133.0304898	-222.6110675	-2482.582323	40.70898139	-386.1953608	-2281.768178	-94.15341611	-447.3464042	-2079.139616	-25.57286724	-529.9344057	-2008.356043	8.152764868	-504.357046	-2375.465014	80.80581725	-99.1780114	-2135.987342	6.247778211	-192.9434638	-1994.561458	11.74235983	-409.0462614	-1980.4217	24.60905712	-483.4962146
7100	236.6333333	-2371.000085	-145.0152242	-216.5176438	-2482.980296	133.033827	-223.4873857	-2484.518076	42.1855055	-386.8869311	-2284.480613	-94.0567107	-448.3492742	-2082.321625	-27.18996101	-530.0807159	-2013.1008	5.526207938	-504.9259117	-2374.790477	80.15645405	-99.92656037	-2136.003719	5.882746973	-195.8578349	-1996.116356	11.07194347	-412.6845987	-1984.515888	22.85135438	-487.5425728
7101	236.6666667	-2370.999966	-144.9965516	-217.300703	-2483.00771	132.9064571	-224.3183719	-2486.218885	43.69704584	-387.4187862	-2286.586943	-93.99382095	-449.2104229	-2084.787606	-28.43997744	-529.8089286	-2016.90235	3.29181812	-505.122617	-2374.135601	79.5949739	-100.5358812	-2136.003853	5.579219242	-198.4117204	-1997.35088	10.55568786	-415.5060293	-1988.240189	21.54451906	-490.6523681
7102	236.7	-2370.999785	-144.9959736	-218.1543932	-2483.034948	132.5891511	-225.2719279	-2487.76275	45.11675095	-387.9226298	-2288.181661	-94.02064002	-449.9162742	-2086.455716	-29.19326435	-529.0798855	-2019.729883	1.435752904	-505.0801348	-2373.588961	79.07280377	-101.1937948	-2136.000695	5.252490938	-200.5295162	-1998.379245	10.18210727	-417.7460938	-1991.822767	20.4820386	-493.3613554
